<svg xmlns="http://www.w3.org/2000/svg" version="1.1" xmlns:xlink="http://www.w3.org/1999/xlink" xmlns:svgjs="http://svgjs.dev/svgjs" width="100%" height="100%" viewBox="0 0 1000 600"><rect width="1000" height="600" x="0" y="0" fill="#b2c8df"/><g><rect width="333.3333333333333" height="333.3333333333333" rx="13.333333333333334" ry="13.333333333333334" y="230.39808724158536" fill="#225588" transform="matrix(0.6004537559286827,0,0,0.6004537559286828,0,61.580959639746624)" x="208.17579650878906"/><path d="M368.46811793737356 334.78447911937263L368.46811793737356 334.78447911937263Q370.9599085276643 336.4649890523594 371.3945231655057 339.07267687940777Q371.8001634941577 341.68036470645615 370.1486278703603 344.1721552967468L370.1486278703603 344.1721552967468Q368.67093810169956 346.05548539405953 366.3819676757349 346.25830555838553Q364.0929972497702 346.4901000319009 362.00684698813143 345.4470249010816L362.00684698813143 345.4470249010816Q354.0678862702286 340.2316492469848 344.998927493938 337.3052440188527Q335.9299687176475 334.37883879072064 325.499217409454 334.37883879072064L325.499217409454 334.37883879072064Q312.7794956752957 334.37883879072064 301.82720680169245 338.86985671508177Q290.8749179280892 343.3608746394429 282.7331370458603 351.79239861356604Q274.5913561636315 360.25289689687855 270.10033823927034 371.7267233358915Q265.6093203149092 383.2005497749044 265.6093203149092 396.96334663988205L265.6093203149092 396.96334663988205Q265.6093203149092 411.16075814270107 270.21623547602803 422.7215075092823Q274.7941763279575 434.31123118505286 283.05185444694405 442.65583223160775Q291.2805582567412 451.00043327816263 302.1169498935867 455.375553965766Q312.9823158396217 459.7506746533694 325.499217409454 459.7506746533694L325.499217409454 459.7506746533694Q335.7271485533215 459.7506746533694 344.796107329612 456.82426942523733Q353.8650661059026 453.92683850629464 361.80402682380543 448.9142830165239L361.80402682380543 448.9142830165239Q363.8901770854442 447.6683877213785 366.2660704389772 447.9581308132728Q368.67093810169956 448.2768482143565 370.1486278703603 450.36299847599525L370.1486278703603 450.36299847599525Q372.00298365848363 452.6519689019599 371.48144609307394 455.25965672900827Q370.9599085276643 457.8673445560567 368.67093810169956 459.34503432471746L368.67093810169956 459.34503432471746Q363.4555624476028 462.6770798815015 356.3568566961933 465.6034851096336Q349.28712525397316 468.52989033776566 341.34816453607027 470.29732319832067Q333.40920381816744 472.06475605887573 325.499217409454 472.06475605887573L325.499217409454 472.06475605887573Q310.4615509401416 472.06475605887573 297.3361888773313 466.6465602404529Q284.1818525053317 461.22836442203015 273.9539213614641 451.31915067924626Q263.7549645267859 441.4099369364624 258.01805130727945 427.61816576229535Q252.281138087773 413.8553688973177 252.281138087773 396.96334663988205L252.281138087773 396.96334663988205Q252.281138087773 380.6797848754243 257.90215407052176 367.0328852472044Q263.5231700532705 353.35701130979504 273.5482810328121 343.3608746394429Q283.5733920123537 333.33576365990126 296.90157423948995 327.7147476771525Q310.2587307758156 322.06475738521436 325.499217409454 322.06475738521436L325.499217409454 322.06475738521436Q337.3786841771189 322.06475738521436 348.4468702874798 325.3968029419984Q359.4860820886513 328.7578228079719 368.46811793737356 334.78447911937263ZM441.48337709472855 469.97860579723704L441.48337709472855 469.97860579723704Q438.5569718665965 469.97860579723704 436.7895390060414 468.0952756999243Q435.0221061454864 466.21194560261154 435.0221061454864 463.7201550123209L435.0221061454864 463.7201550123209L435.0221061454864 330.84397306961057L447.9446480439707 330.84397306961057L447.9446480439707 463.7201550123209Q447.9446480439707 466.21194560261154 446.061317946658 468.0952756999243Q444.2069621585347 469.97860579723704 441.48337709472855 469.97860579723704ZM491.14534304540575 335.82755425019195L391.8214111440514 335.82755425019195Q389.3296205537607 335.82755425019195 387.44629045644797 334.17601862639464Q385.5629603591353 332.4955086934079 385.5629603591353 329.80089793879125L385.5629603591353 329.80089793879125Q385.5629603591353 327.2801330393111 387.44629045644797 325.6285974155138Q389.3296205537607 323.94808748252706 391.8214111440514 323.94808748252706L391.8214111440514 323.94808748252706L491.14534304540575 323.94808748252706Q493.6371336356964 323.94808748252706 495.52046373300914 325.6285974155138Q497.4037938303219 327.2801330393111 497.4037938303219 330.0037181031172L497.4037938303219 330.0037181031172Q497.4037938303219 332.6983288577339 495.52046373300914 334.2629415539629Q493.6371336356964 335.82755425019195 491.14534304540575 335.82755425019195L491.14534304540575 335.82755425019195Z " fill="#ffffff" transform="matrix(0.6004537559286827,0,0,0.6004537559286828,0,61.580959639746624)"/><path d="M736.2313520544684 340.45364509382557L736.2313520544684 340.45364509382557Q738.6202409433573 342.0647562049367 739.036907610024 344.5647562049367Q739.4257964989129 347.0647562049367 737.8424631655796 349.45364509382557L737.8424631655796 349.45364509382557Q736.4257964989129 351.2592006493811 734.2313520544684 351.45364509382557Q732.036907610024 351.6758673160478 730.036907610024 350.6758673160478L730.036907610024 350.6758673160478Q722.4257964989129 345.6758673160478 713.7313520544684 342.87031176049226Q705.036907610024 340.0647562049367 695.036907610024 340.0647562049367L695.036907610024 340.0647562049367Q682.8424631655796 340.0647562049367 672.3424631655796 344.37031176049226Q661.8424631655796 348.6758673160478 654.036907610024 356.7592006493811Q646.2313520544684 364.87031176049226 641.9257964989129 375.87031176049226Q637.6202409433573 386.87031176049226 637.6202409433573 400.06475620493666L637.6202409433573 400.06475620493666Q637.6202409433573 413.6758673160478 642.036907610024 424.7592006493811Q646.4257964989129 435.87031176049226 654.3424631655796 443.87031176049226Q662.2313520544684 451.8703117604922 672.6202409433573 456.06475620493666Q683.036907610024 460.2592006493811 695.036907610024 460.2592006493811L695.036907610024 460.2592006493811Q704.8424631655796 460.2592006493811 713.536907610024 457.45364509382557Q722.2313520544684 454.6758673160478 729.8424631655795 449.87031176049226L729.8424631655795 449.87031176049226Q731.8424631655795 448.6758673160478 734.1202409433573 448.95364509382557Q736.4257964989129 449.2592006493811 737.8424631655796 451.2592006493811L737.8424631655796 451.2592006493811Q739.6202409433573 453.45364509382557 739.1202409433573 455.95364509382557Q738.6202409433573 458.45364509382557 736.4257964989129 459.8703117604922L736.4257964989129 459.8703117604922Q731.4257964989129 463.06475620493666 724.6202409433573 465.8703117604922Q717.8424631655796 468.6758673160478 710.2313520544684 470.3703117604922Q702.6202409433573 472.06475620493666 695.036907610024 472.06475620493666L695.036907610024 472.06475620493666Q680.6202409433573 472.06475620493666 668.036907610024 466.8703117604922Q655.4257964989129 461.67586731604774 645.6202409433573 452.1758673160478Q635.8424631655796 442.6758673160478 630.3424631655796 429.45364509382557Q624.8424631655796 416.2592006493811 624.8424631655796 400.06475620493666L624.8424631655796 400.06475620493666Q624.8424631655796 384.45364509382557 630.2313520544684 371.37031176049226Q635.6202409433573 358.2592006493811 645.2313520544684 348.6758673160478Q654.8424631655796 339.0647562049367 667.6202409433573 333.6758673160478Q680.4257964989129 328.25920064938117 695.036907610024 328.25920064938117L695.036907610024 328.25920064938117Q706.4257964989129 328.25920064938117 717.036907610024 331.45364509382557Q727.6202409433573 334.6758673160478 736.2313520544684 340.45364509382557ZM808.2313520544684 367.0647562049367L808.2313520544684 367.0647562049367Q820.8424631655795 367.0647562049367 828.6202409433573 372.45364509382557Q836.4257964989129 377.87031176049226 840.1202409433573 387.06475620493666Q843.8424631655795 396.2592006493811 843.8424631655795 407.45364509382557L843.8424631655795 407.45364509382557L843.8424631655795 464.06475620493666Q843.8424631655795 466.45364509382557 842.036907610024 468.2592006493811Q840.2313520544684 470.06475620493666 837.8424631655796 470.06475620493666L837.8424631655796 470.06475620493666Q835.036907610024 470.06475620493666 833.4257964989129 468.2592006493811Q831.8424631655796 466.45364509382557 831.8424631655796 464.06475620493666L831.8424631655796 464.06475620493666L831.8424631655796 407.45364509382557Q831.8424631655796 399.2592006493811 829.3424631655796 392.6758673160478Q826.8424631655796 386.0647562049367 821.2313520544684 382.1758673160478Q815.6202409433573 378.2592006493811 806.2313520544684 378.2592006493811L806.2313520544684 378.2592006493811Q797.8424631655795 378.2592006493811 790.3424631655796 382.1758673160478Q782.8424631655796 386.0647562049367 778.2313520544684 392.6758673160478Q773.6202409433573 399.2592006493811 773.6202409433573 407.45364509382557L773.6202409433573 407.45364509382557L773.6202409433573 464.06475620493666Q773.6202409433573 466.45364509382557 771.8424631655796 468.2592006493811Q770.036907610024 470.06475620493666 767.6202409433573 470.06475620493666L767.6202409433573 470.06475620493666Q764.8424631655796 470.06475620493666 763.2313520544684 468.2592006493811Q761.6202409433573 466.45364509382557 761.6202409433573 464.06475620493666L761.6202409433573 464.06475620493666L761.6202409433573 328.0647562049367Q761.6202409433573 325.6758673160478 763.3424631655796 323.87031176049226Q765.036907610024 322.0647562049367 767.6202409433573 322.0647562049367L767.6202409433573 322.0647562049367Q770.2313520544684 322.0647562049367 771.9257964989129 323.87031176049226Q773.6202409433573 325.6758673160478 773.6202409433573 328.0647562049367L773.6202409433573 328.0647562049367L773.6202409433573 392.87031176049226L769.036907610024 399.87031176049226Q769.4257964989129 393.6758673160478 772.9257964989129 387.7592006493811Q776.4257964989129 381.87031176049226 782.036907610024 377.1758673160478Q787.6202409433573 372.45364509382557 794.4257964989129 369.7592006493811Q801.2313520544684 367.0647562049367 808.2313520544684 367.0647562049367ZM886.8424631655796 372.06475620493666L886.8424631655796 464.06475620493666Q886.8424631655796 466.45364509382557 885.036907610024 468.2592006493811Q883.2313520544684 470.06475620493666 880.8424631655796 470.06475620493666L880.8424631655796 470.06475620493666Q878.2313520544685 470.06475620493666 876.536907610024 468.2592006493811Q874.8424631655795 466.45364509382557 874.8424631655795 464.06475620493666L874.8424631655795 464.06475620493666L874.8424631655795 372.06475620493666Q874.8424631655795 369.6758673160478 876.536907610024 367.87031176049226Q878.2313520544685 366.0647562049367 880.8424631655796 366.0647562049367L880.8424631655796 366.0647562049367Q883.4257964989129 366.0647562049367 885.1202409433573 367.87031176049226Q886.8424631655796 369.6758673160478 886.8424631655796 372.06475620493666L886.8424631655796 372.06475620493666ZM880.8424631655796 352.6758673160478L880.8424631655796 352.6758673160478Q876.6202409433573 352.6758673160478 874.536907610024 350.7592006493811Q872.4257964989129 348.87031176049226 872.4257964989129 345.2592006493811L872.4257964989129 345.2592006493811L872.4257964989129 343.2592006493811Q872.4257964989129 339.6758673160478 874.7313520544684 337.7592006493811Q877.036907610024 335.87031176049226 881.036907610024 335.87031176049226L881.036907610024 335.87031176049226Q884.8424631655796 335.87031176049226 886.9257964989129 337.7592006493811Q889.036907610024 339.6758673160478 889.036907610024 343.2592006493811L889.036907610024 343.2592006493811L889.036907610024 345.2592006493811Q889.036907610024 348.87031176049226 886.9257964989129 350.7592006493811Q884.8424631655796 352.6758673160478 880.8424631655796 352.6758673160478ZM966.2313520544684 365.45364509382557L966.2313520544684 365.45364509382557Q979.4257964989129 365.45364509382557 987.3424631655796 370.7592006493811Q995.2313520544685 376.06475620493666 998.7313520544684 385.1758673160478Q1002.2313520544684 394.2592006493811 1002.2313520544684 405.2592006493811L1002.2313520544684 405.2592006493811L1002.2313520544684 464.06475620493666Q1002.2313520544684 466.45364509382557 1000.4257964989129 468.2592006493811Q998.6202409433573 470.06475620493666 996.2313520544684 470.06475620493666L996.2313520544684 470.06475620493666Q993.4257964989129 470.06475620493666 991.8424631655796 468.2592006493811Q990.2313520544684 466.45364509382557 990.2313520544684 464.06475620493666L990.2313520544684 464.06475620493666L990.2313520544684 405.87031176049226Q990.2313520544684 397.87031176049226 987.6202409433573 391.2592006493811Q985.036907610024 384.6758673160478 979.1202409433573 380.6758673160478Q973.2313520544684 376.6758673160478 963.6202409433573 376.6758673160478L963.6202409433573 376.6758673160478Q955.036907610024 376.6758673160478 947.3424631655796 380.6758673160478Q939.6202409433573 384.6758673160478 934.8424631655796 391.2592006493811Q930.036907610024 397.87031176049226 930.036907610024 405.87031176049226L930.036907610024 405.87031176049226L930.036907610024 464.06475620493666Q930.036907610024 466.45364509382557 928.2313520544685 468.2592006493811Q926.4257964989129 470.06475620493666 924.036907610024 470.06475620493666L924.036907610024 470.06475620493666Q921.2313520544684 470.06475620493666 919.6202409433573 468.2592006493811Q918.036907610024 466.45364509382557 918.036907610024 464.06475620493666L918.036907610024 464.06475620493666L918.036907610024 374.45364509382557Q918.036907610024 372.06475620493666 919.7313520544684 370.2592006493811Q921.4257964989129 368.45364509382557 924.036907610024 368.45364509382557L924.036907610024 368.45364509382557Q926.6202409433573 368.45364509382557 928.3424631655796 370.2592006493811Q930.036907610024 372.06475620493666 930.036907610024 374.45364509382557L930.036907610024 374.45364509382557L930.036907610024 391.2592006493811L925.4257964989129 398.45364509382557Q925.8424631655796 392.06475620493666 929.536907610024 386.1758673160478Q933.2313520544684 380.2592006493811 939.036907610024 375.56475620493666Q944.8424631655796 370.87031176049226 951.9257964989129 368.1758673160478Q959.036907610024 365.45364509382557 966.2313520544684 365.45364509382557ZM1132.8424631655796 470.06475620493666L1132.8424631655796 470.06475620493666Q1130.036907610024 470.06475620493666 1128.3424631655796 468.2592006493811Q1126.6202409433572 466.45364509382557 1126.6202409433572 464.06475620493666L1126.6202409433572 464.06475620493666L1126.6202409433572 336.6758673160478L1139.036907610024 336.6758673160478L1139.036907610024 464.06475620493666Q1139.036907610024 466.45364509382557 1137.2313520544685 468.2592006493811Q1135.4257964989129 470.06475620493666 1132.8424631655796 470.06475620493666ZM1180.4257964989129 341.45364509382557L1085.2313520544685 341.45364509382557Q1082.8424631655796 341.45364509382557 1081.036907610024 339.87031176049226Q1079.2313520544685 338.2592006493811 1079.2313520544685 335.6758673160478L1079.2313520544685 335.6758673160478Q1079.2313520544685 333.2592006493811 1081.036907610024 331.6758673160478Q1082.8424631655796 330.0647562049367 1085.2313520544685 330.0647562049367L1085.2313520544685 330.0647562049367L1180.4257964989129 330.0647562049367Q1182.8424631655794 330.0647562049367 1184.6202409433572 331.6758673160478Q1186.4257964989129 333.2592006493811 1186.4257964989129 335.87031176049226L1186.4257964989129 335.87031176049226Q1186.4257964989129 338.45364509382557 1184.6202409433572 339.95364509382557Q1182.8424631655794 341.45364509382557 1180.4257964989129 341.45364509382557L1180.4257964989129 341.45364509382557ZM1220.6202409433572 372.06475620493666L1220.6202409433572 464.06475620493666Q1220.6202409433572 466.45364509382557 1218.8424631655794 468.2592006493811Q1217.0369076100242 470.06475620493666 1214.6202409433572 470.06475620493666L1214.6202409433572 470.06475620493666Q1212.036907610024 470.06475620493666 1210.3424631655794 468.2592006493811Q1208.6202409433572 466.45364509382557 1208.6202409433572 464.06475620493666L1208.6202409433572 464.06475620493666L1208.6202409433572 372.06475620493666Q1208.6202409433572 369.6758673160478 1210.3424631655794 367.87031176049226Q1212.036907610024 366.0647562049367 1214.6202409433572 366.0647562049367L1214.6202409433572 366.0647562049367Q1217.2313520544685 366.0647562049367 1218.9257964989129 367.87031176049226Q1220.6202409433572 369.6758673160478 1220.6202409433572 372.06475620493666L1220.6202409433572 372.06475620493666ZM1214.6202409433572 352.6758673160478L1214.6202409433572 352.6758673160478Q1210.4257964989129 352.6758673160478 1208.3424631655794 350.7592006493811Q1206.2313520544685 348.87031176049226 1206.2313520544685 345.2592006493811L1206.2313520544685 345.2592006493811L1206.2313520544685 343.2592006493811Q1206.2313520544685 339.6758673160478 1208.5369076100242 337.7592006493811Q1210.8424631655794 335.87031176049226 1214.8424631655796 335.87031176049226L1214.8424631655796 335.87031176049226Q1218.6202409433572 335.87031176049226 1220.7313520544685 337.7592006493811Q1222.8424631655794 339.6758673160478 1222.8424631655794 343.2592006493811L1222.8424631655794 343.2592006493811L1222.8424631655794 345.2592006493811Q1222.8424631655794 348.87031176049226 1220.7313520544685 350.7592006493811Q1218.6202409433572 352.6758673160478 1214.6202409433572 352.6758673160478ZM1335.6202409433572 367.87031176049226L1335.6202409433572 367.87031176049226Q1338.2313520544683 367.87031176049226 1339.9257964989129 369.6758673160478Q1341.6202409433572 371.45364509382557 1341.6202409433572 374.06475620493666L1341.6202409433572 374.06475620493666L1341.6202409433572 464.06475620493666Q1341.6202409433572 466.45364509382557 1339.8424631655796 468.2592006493811Q1338.036907610024 470.06475620493666 1335.6202409433572 470.06475620493666L1335.6202409433572 470.06475620493666Q1333.0369076100242 470.06475620493666 1331.3424631655794 468.2592006493811Q1329.6202409433572 466.45364509382557 1329.6202409433572 464.06475620493666L1329.6202409433572 464.06475620493666L1329.6202409433572 440.2592006493811L1333.0369076100242 438.6758673160478Q1333.0369076100242 444.2592006493811 1329.9257964989129 450.06475620493666Q1326.8424631655794 455.8703117604922 1321.4257964989129 460.8703117604922Q1316.036907610024 465.8703117604922 1308.7313520544685 468.95364509382557Q1301.4257964989129 472.06475620493666 1293.036907610024 472.06475620493666L1293.036907610024 472.06475620493666Q1279.4257964989129 472.06475620493666 1268.7313520544685 465.06475620493666Q1258.036907610024 458.06475620493666 1251.9257964989129 445.87031176049226Q1245.8424631655794 433.6758673160478 1245.8424631655794 418.45364509382557L1245.8424631655794 418.45364509382557Q1245.8424631655794 402.87031176049226 1252.0369076100242 390.95364509382557Q1258.2313520544685 379.0647562049367 1268.8424631655794 372.2592006493811Q1279.4257964989129 365.45364509382557 1292.8424631655794 365.45364509382557L1292.8424631655794 365.45364509382557Q1301.4257964989129 365.45364509382557 1308.9257964989129 368.45364509382557Q1316.4257964989129 371.45364509382557 1322.036907610024 376.6758673160478Q1327.6202409433572 381.87031176049226 1330.7313520544685 388.56475620493666Q1333.8424631655794 395.2592006493811 1333.8424631655794 402.45364509382557L1333.8424631655794 402.45364509382557L1329.6202409433572 399.45364509382557L1329.6202409433572 374.06475620493666Q1329.6202409433572 371.45364509382557 1331.3424631655794 369.6758673160478Q1333.0369076100242 367.87031176049226 1335.6202409433572 367.87031176049226ZM1294.0369076100242 460.8703117604922L1294.0369076100242 460.8703117604922Q1304.6202409433572 460.8703117604922 1312.8424631655794 455.3703117604922Q1321.0369076100242 449.87031176049226 1325.7313520544685 440.1758673160478Q1330.4257964989129 430.45364509382557 1330.4257964989129 418.45364509382557L1330.4257964989129 418.45364509382557Q1330.4257964989129 406.6758673160478 1325.7313520544685 397.2592006493811Q1321.0369076100242 387.87031176049226 1312.8424631655794 382.2592006493811Q1304.6202409433572 376.6758673160478 1294.0369076100242 376.6758673160478L1294.0369076100242 376.6758673160478Q1283.6202409433572 376.6758673160478 1275.3424631655794 382.06475620493666Q1267.0369076100242 387.45364509382557 1262.3424631655794 396.87031176049226Q1257.6202409433572 406.2592006493811 1257.6202409433572 418.45364509382557L1257.6202409433572 418.45364509382557Q1257.6202409433572 430.45364509382557 1262.3424631655794 440.1758673160478Q1267.0369076100242 449.87031176049226 1275.2313520544685 455.3703117604922Q1283.4257964989129 460.8703117604922 1294.0369076100242 460.8703117604922ZM1421.2313520544685 365.45364509382557L1421.2313520544685 365.45364509382557Q1434.4257964989129 365.45364509382557 1442.3424631655794 370.7592006493811Q1450.2313520544685 376.06475620493666 1453.7313520544685 385.1758673160478Q1457.2313520544685 394.2592006493811 1457.2313520544685 405.2592006493811L1457.2313520544685 405.2592006493811L1457.2313520544685 464.06475620493666Q1457.2313520544685 466.45364509382557 1455.4257964989129 468.2592006493811Q1453.6202409433572 470.06475620493666 1451.2313520544683 470.06475620493666L1451.2313520544683 470.06475620493666Q1448.4257964989129 470.06475620493666 1446.8424631655794 468.2592006493811Q1445.2313520544685 466.45364509382557 1445.2313520544685 464.06475620493666L1445.2313520544685 464.06475620493666L1445.2313520544685 405.87031176049226Q1445.2313520544685 397.87031176049226 1442.6202409433572 391.2592006493811Q1440.0369076100242 384.6758673160478 1434.1202409433572 380.6758673160478Q1428.2313520544685 376.6758673160478 1418.6202409433574 376.6758673160478L1418.6202409433574 376.6758673160478Q1410.036907610024 376.6758673160478 1402.3424631655794 380.6758673160478Q1394.6202409433572 384.6758673160478 1389.8424631655794 391.2592006493811Q1385.036907610024 397.87031176049226 1385.036907610024 405.87031176049226L1385.036907610024 405.87031176049226L1385.036907610024 464.06475620493666Q1385.036907610024 466.45364509382557 1383.2313520544685 468.2592006493811Q1381.4257964989129 470.06475620493666 1379.0369076100242 470.06475620493666L1379.0369076100242 470.06475620493666Q1376.2313520544683 470.06475620493666 1374.6202409433572 468.2592006493811Q1373.0369076100242 466.45364509382557 1373.0369076100242 464.06475620493666L1373.0369076100242 464.06475620493666L1373.0369076100242 374.45364509382557Q1373.0369076100242 372.06475620493666 1374.7313520544685 370.2592006493811Q1376.4257964989129 368.45364509382557 1379.0369076100242 368.45364509382557L1379.0369076100242 368.45364509382557Q1381.6202409433572 368.45364509382557 1383.3424631655794 370.2592006493811Q1385.036907610024 372.06475620493666 1385.036907610024 374.45364509382557L1385.036907610024 374.45364509382557L1385.036907610024 391.2592006493811L1380.4257964989129 398.45364509382557Q1380.8424631655794 392.06475620493666 1384.536907610024 386.1758673160478Q1388.2313520544683 380.2592006493811 1394.0369076100242 375.56475620493666Q1399.8424631655794 370.87031176049226 1406.9257964989129 368.1758673160478Q1414.036907610024 365.45364509382557 1421.2313520544685 365.45364509382557Z " fill="#225588" transform="matrix(0.6004537559286827,0,0,0.6004537559286828,0,61.580959639746624)"/></g></svg>